<svg height='300px' width='300px'  fill="#000000" xmlns="http://www.w3.org/2000/svg" xmlns:xlink="http://www.w3.org/1999/xlink" xml:space="preserve" version="1.1" style="shape-rendering:geometricPrecision;text-rendering:geometricPrecision;image-rendering:optimizeQuality;" viewBox="0 0 772 562" x="0px" y="0px" fill-rule="evenodd" clip-rule="evenodd"><defs><style type="text/css">
   
    .fil0 {fill:#000000}
   
  </style></defs><g><path class="fil0" d="M127 199c16,-34 31,-70 50,-109 10,-18 23,-35 44,-37l329 0c22,2 34,19 45,37 19,39 34,75 50,109l-518 0zm94 -199c-35,0 -57,13 -86,54l-49 110 -75 0c-11,0 -32,61 46,63l-26 64c0,80 1,161 1,241 0,17 13,30 30,30l101 0c17,0 30,-13 30,-30l0 -67 385 0 0 67c0,17 14,30 30,30l102 0c17,0 30,-13 30,-30 0,-80 1,-161 1,-241l-27 -64c79,-2 57,-63 46,-63l-75 0 -48 -110c-30,-41 -51,-54 -87,-54l-329 0zm409 296c-27,0 -49,22 -49,49 0,27 22,49 49,49 27,0 49,-22 49,-49 0,-27 -22,-49 -49,-49zm-489 0c27,0 49,22 49,49 0,27 -22,49 -49,49 -27,0 -49,-22 -49,-49 0,-27 22,-49 49,-49z"></path></g></svg>