<svg height='300px' width='300px'  fill="#000000" xmlns="http://www.w3.org/2000/svg" xmlns:xlink="http://www.w3.org/1999/xlink" version="1.1" x="0px" y="0px" viewBox="0 0 60 60" enable-background="new 0 0 60 60" xml:space="preserve"><path d="M38.749,9.203c0,0-7.77-6.458-17.604,0.176c-5.84,3.939-9.633,9.238-10.845,13.996l24.862,17.41  c4.058-2.767,7.739-8.143,9.443-14.979C47.475,14.296,38.749,9.203,38.749,9.203z"></path><path d="M12.93,38.918c2.701-2.835,5.31-5.973,6.661-7.639l-9.542-6.684c-0.455,2.781,0.023,5.31,1.558,7.182  C13.819,34.477,13.529,36.968,12.93,38.918z"></path><path d="M19.65,43.631c1.63-1.231,3.872-2.359,7.169-1.201c2.285,0.803,4.825,0.388,7.281-0.992l-9.542-6.682  C23.354,36.762,21.346,40.213,19.65,43.631z"></path><path d="M20.325,31.793c-2.072,2.559-5.751,6.939-9.105,10.105c-1.177,1.463-3.065,3.703-5.004,5.573  C4.916,48.727,7.224,50.909,8.782,52c1.558,1.092,4.398,2.514,5.132,0.863c1.094-2.462,2.552-5,3.523-6.605  c1.863-4.314,4.823-9.418,6.384-12.017L20.325,31.793z"></path><circle cx="49.675" cy="34.757" r="4.491"></circle></svg>